<?xml version="1.0" encoding="UTF-8" standalone="no"?>
<!-- Created with Inkscape (http://www.inkscape.org/) -->

<svg
   width="106.70398"
   height="23.29599"
   viewBox="0 0 106.70398 23.29599"
   version="1.1"
   id="svg1"
   xmlns="http://www.w3.org/2000/svg"
   xmlns:svg="http://www.w3.org/2000/svg">
  <defs
     id="defs1" />
  <g
     id="layer1"
     transform="translate(-694.74731,-439.09418)">
    <path
       style="-inkscape-font-specification:'Montserrat Ultra-Bold Italic';fill:#2ecc71"
       d="m 704.09129,462.39017 c -1.28,0 -2.50667,-0.10667 -3.68,-0.32 -1.17333,-0.192 -2.24,-0.46933 -3.2,-0.832 -0.96,-0.384 -1.78133,-0.8 -2.464,-1.248 l 2.496,-4.736 c 0.768,0.46933 1.55733,0.87467 2.368,1.216 0.832,0.32 1.67467,0.56533 2.528,0.736 0.85333,0.17067 1.70667,0.256 2.56,0.256 0.81067,0 1.504,-0.0747 2.08,-0.224 0.576,-0.17067 1.01333,-0.40533 1.312,-0.704 0.29867,-0.29867 0.448,-0.65067 0.448,-1.056 0,-0.448 -0.20267,-0.8 -0.608,-1.056 -0.384,-0.27733 -0.896,-0.512 -1.536,-0.704 -0.64,-0.192 -1.35467,-0.384 -2.144,-0.576 -0.768,-0.21333 -1.54667,-0.45867 -2.336,-0.736 -0.768,-0.29867 -1.472,-0.66133 -2.112,-1.088 -0.64,-0.448 -1.16267,-1.01333 -1.568,-1.696 -0.384,-0.68267 -0.576,-1.52533 -0.576,-2.528 0,-1.62133 0.43733,-3.02933 1.312,-4.224 0.87467,-1.19467 2.112,-2.12267 3.712,-2.784 1.62133,-0.66133 3.53067,-0.992 5.728,-0.992 1.6,0 3.09333,0.17067 4.48,0.512 1.38667,0.32 2.58133,0.78933 3.584,1.408 l -2.304,4.704 c -0.87467,-0.55467 -1.84533,-0.97067 -2.912,-1.248 -1.04533,-0.29867 -2.12267,-0.448 -3.232,-0.448 -0.85333,0 -1.58933,0.096 -2.208,0.288 -0.59733,0.192 -1.056,0.45867 -1.376,0.8 -0.29867,0.32 -0.448,0.68267 -0.448,1.088 0,0.42667 0.192,0.77867 0.576,1.056 0.384,0.27733 0.896,0.512 1.536,0.704 0.66133,0.192 1.376,0.39467 2.144,0.608 0.78933,0.192 1.568,0.42667 2.336,0.704 0.768,0.256 1.48267,0.608 2.144,1.056 0.66133,0.42667 1.184,0.97067 1.568,1.632 0.384,0.66133 0.576,1.48267 0.576,2.464 0,1.6 -0.43733,2.99733 -1.312,4.192 -0.87467,1.19467 -2.12267,2.12267 -3.744,2.784 -1.62133,0.66133 -3.53067,0.992 -5.728,0.992 z m 16.16398,-0.448 -2.784,-22.4 h 6.272 l 2.304,19.392 h -3.264 l 10.24,-19.392 h 5.856 l 2.144,19.392 h -3.104 l 10.176,-19.392 h 6.272 l -11.744,22.4 h -6.816 l -1.952,-16.48 h 1.92 l -8.736,16.48 z m 30.21205,0 4.48,-22.4 h 6.336 l -4.48,22.4 z m 17.73202,-12.576 h 10.336 l -0.992,4.896 h -10.304 z m -2.048,12.576 h -6.336 l 4.48,-22.4 h 17.09198 l -0.54798,4.896 h -11.2 z m 17.60398,0 3.488,-17.504 h -6.40398 l 0.54798,-4.896 h 20.064 l -1.024,4.896 h -6.848 l -3.488,17.504 z"
       id="text1"
       aria-label="SWIFT" />
  </g>
</svg>
